<svg width="43" height="46" viewBox="0 0 43 46" fill="none" xmlns="http://www.w3.org/2000/svg">
<path d="M42.5677 34.0575L42.577 34.0525H42.5589L31.9326 28.2945L21.2887 22.5264L10.6443 28.2945L0.0180826 34.0525H0L0.00925157 34.0575L0 34.0626H0.0180826L10.6443 39.8206L21.2887 45.5887L31.9326 39.8206L42.5589 34.0626H42.577L42.5677 34.0575Z" fill="#FFB166"/>
<path d="M42.5677 11.9423L42.577 11.9376H42.5589L31.9326 6.17924L21.2887 0.411133L10.6443 6.17924L0.0180826 11.9376H0L0.00925157 11.9423L0 11.9473H0.0180826L10.6443 17.7058L21.2887 23.4739L31.9326 17.7058L42.5589 11.9473H42.577L42.5677 11.9423Z" fill="#FF8B13"/>
<path d="M0.0180664 11.4736V34.5262L21.2887 23.0002L0.0180664 11.4736Z" fill="#FFCB99"/>
<path d="M42.5588 11.4736V34.5262L21.2886 23.0002L42.5588 11.4736Z" fill="#FFCB99"/>
</svg>
